# AST/ASF file generated using VICON BodyLanguage
# -----------------------------------------------
:version 1.10
:name VICON
:units
  mass 1.0
  length 0.45
  angle deg
:documentation
   .ast/.asf automatically generated from VICON data using
   VICON BodyBuilder and BodyLanguage model FoxedUp or BRILLIANT.MOD
:root
   order TX TY TZ RX RY RZ
   axis XYZ
   position 0 0 0  
   orientation 0 0 0 
:bonedata
  begin
     id 1 
     name lhipjoint
     direction 0.700308 -0.549349 0.455834 
     length 2.59063 
     axis 0 0 0  XYZ
  end
  begin
     id 2 
     name lfemur
     direction 0.34202 -0.939693 0  
     length 6.31066  
     axis 0 0 20  XYZ
    dof rx ry rz
    limits (-160.0 20.0)
           (-70.0 70.0)
           (-60.0 70.0)
  end
  begin
     id 3 
     name ltibia
     direction 0.34202 -0.939693 0   
     length 7.36093   
     axis 0 0 20   XYZ
    dof rx
    limits (-10.0 170.0)
  end
  begin
     id 4 
     name lfoot
     direction 0.0905332 -0.248738 0.96433   
     length 2.0233   
     axis -90 7.62852e-016 20   XYZ
    dof rx rz
    limits (-45.0 90.0)
           (-70.0 20.0)
  end
  begin
     id 5 
     name ltoes
     direction 1.53573e-011 -4.21855e-011 1   
     length 1.01524   
     axis -90 7.62852e-016 20   XYZ
    dof rx
    limits (-90.0 20.0)
  end
  begin
     id 6 
     name rhipjoint
     direction -0.61416 -0.607328 0.503944   
     length 2.34332  
     axis 0 0 0  XYZ 
  end
  begin
     id 7 
     name rfemur
     direction -0.34202 -0.939693 0   
     length 6.58548   
     axis 0 0 -20   XYZ
    dof rx ry rz
    limits (-160.0 20.0)
           (-70.0 70.0)
           (-70.0 60.0)
  end
  begin
     id 8 
     name rtibia
     direction -0.34202 -0.939693 0   
     length 7.20707   
     axis 0 0 -20   XYZ
    dof rx
    limits (-10.0 170.0)
 end
 begin
     id 9 
     name rfoot
     direction -0.136772 -0.375778 0.916561   
     length 1.92184  
     axis -90 -7.62852e-016 -20   XYZ
    dof rx rz
    limits (-45.0 90.0)
           (-20.0 70.0)
  end
  begin
     id 10 
     name rtoes
     direction -1.53535e-011 -4.21828e-011 1   
     length 0.951089   
     axis -90 -7.62852e-016 -20   XYZ
    dof rx
    limits (-90.0 20.0)
  end
  begin
     id 11 
     name lowerback
     direction -0.0444974 0.988086 -0.147332   
     length 1.9609   
     axis 0 0 0   XYZ
    dof rx ry rz
    limits (-20.0 45.0)
           (-30.0 30.0)
           (-30.0 30.0)
  end
  begin
     id 12 
     name upperback
     direction 0.00613146 0.999513 0.0306081   
     length 1.94944   
     axis 0 0 0   XYZ
    dof rx ry rz
    limits (-20.0 45.0)
           (-30.0 30.0)
           (-30.0 30.0)
  end
  begin
     id 13 
     name thorax
     direction 0.0254621 0.994518 0.101418   
     length 2.0119   
     axis 0 0 0   XYZ
    dof rx ry rz
    limits (-20.0 45.0)
           (-30.0 30.0)
           (-30.0 30.0)
  end
  begin
     id 14 
     name lowerneck
     direction 0.0168698 0.977854 0.208608   
     length 1.6375   
     axis 0 0 0   XYZ
    dof rx ry rz
    limits (-20.0 45.0)
           (-30.0 30.0)
           (-30.0 30.0)
  end
  begin
     id 15 
     name upperneck
     direction -0.0283988 0.989338 -0.142843   
     length 1.6851   
     axis 0 0 0   XYZ
    dof rx ry rz
    limits (-20.0 45.0)
           (-30.0 30.0)
           (-30.0 30.0)
  end
  begin
     id 16
     name head
     direction -0.0129422 0.99741 -0.0707489  
     length 1.69029  
     axis 0 0 0   XYZ
    dof rx ry rz
    limits (-20.0 45.0)
           (-30.0 30.0)
           (-30.0 30.0)
  end
  begin
     id 17 
     name lclavicle
     direction 0.820295 0.564628 -0.0911715  
     length 3.16484  
     axis 0 0 0   XYZ
    dof ry rz
    limits (-20.0 10.0)
           (0.0 20.0)
  end
  begin
     id 18 
     name lhumerus
     direction 1 -4.48969e-011 1.00186e-027   
     length 5.17853   
     axis 180 -30 -90   XYZ
    dof rx ry rz
    limits (-60.0 90.0)
           (-90.0 90.0)
           (-90.0 90.0)
  end
  begin
     id 19
     name lradius
     direction 1 -4.48966e-011 -1.52922e-027   
     length 3.40399   
     axis 180 -30 -90   XYZ
    dof rx
    limits (-10.0 170.0)
  end
  begin
     id 20
     name lwrist
     direction 1 -4.48981e-011 -3.80893e-027   
     length 1.70199   
     axis 1.1049e-015 90 90   XYZ
    dof ry
    limits (-180.0 0.0)
 end
  begin
     id 21 
     name lhand
     direction 1 -4.48957e-011 -7.61786e-027   
     length 0.708964   
     axis 4.86085e-015 90 90   XYZ
    dof rx rz
    limits (-90.0 90.0)
           (-45.0 45.0)
  end
  begin
     id 22 
     name lfingers
     direction 1 -4.48929e-011 -1.52357e-026   
     length 0.571585   
     axis 9.7217e-015 90 90   XYZ
    dof rx
    limits (0.0 90.0)
  end
  begin
     id 23
     name lthumb
     direction 0.707107 -6.34905e-011 0.707107   
     length 0.820685   
     axis -90 45 2.85299e-015   XYZ
    dof rx rz
    limits (-45.0 45.0)
           (-45.0 45.0)
  end
  begin
     id 24 
     name rclavicle
     direction -0.858602 0.463947 -0.218075   
     length 3.35137  
     axis 0 0 0   XYZ 
    dof ry rz
    limits (-10.0 20.0)
           (-20.0 0.0)
  end
  begin
     id 25 
     name rhumerus
     direction -1 -4.48969e-011 -1.98511e-027  
     length 5.42351   
     axis 180 30 90   XYZ
    dof rx ry rz
    limits (-90.0 60.0)
           (-90.0 90.0)
           (-90.0 90.0)
  end
  begin
     id 26 
     name rradius
     direction -1 -4.48961e-011 -2.82624e-027   
     length 3.42066   
     axis 180 30 90   XYZ
    dof rx
    limits (-10.0 170.0)
  end
  begin
     id 27 
     name rwrist
     direction -1 -4.48966e-011 -3.80893e-027   
     length 1.71033   
     axis 1.1049e-015 -90 -90   XYZ
    dof ry
    limits (-180.0 0.0)
  end
  begin
     id 28
     name rhand
     direction -1 -4.48964e-011 -7.61786e-027   
     length 0.743608   
     axis 4.86085e-015 -90 -90   XYZ
    dof rx rz
    limits (-90.0 90.0)
           (-45.0 45.0)
  end
  begin
     id 29
     name rfingers
     direction -1 -4.48961e-011 -1.52357e-026   
     length 0.599516   
     axis 9.7217e-015 -90 -90   XYZ
    dof rx
    limits (0.0 90.0)
  end
  begin
     id 30
     name rthumb
     direction -0.707107 -6.34913e-011 0.707107   
     length 0.860789   
     axis -90 -45 -2.85299e-015   XYZ
    dof rx rz
    limits (-45.0 45.0)
           (-45.0 45.0)
  end
:hierarchy
  begin
    root lhipjoint rhipjoint lowerback
    lhipjoint lfemur
    lfemur ltibia
    ltibia lfoot
    lfoot ltoes
    rhipjoint rfemur
    rfemur rtibia
    rtibia rfoot
    rfoot rtoes
    lowerback upperback
    upperback thorax
    thorax lowerneck lclavicle rclavicle
    lowerneck upperneck
    upperneck head
    lclavicle lhumerus
    lhumerus lradius
    lradius lwrist
    lwrist lhand lthumb
    lhand lfingers
    rclavicle rhumerus
    rhumerus rradius
    rradius rwrist
    rwrist rhand rthumb
    rhand rfingers
  end

#!OML:ASF E:\mmandel\Project 1\Capture day 1\Session 2\Subject.ASF
:FULLY-SPECIFIED
:DEGREES
182
root 22.3886 2.44348 -0.00218847 176.3 78.8871 91.1726
lowerback 8.63435 -2.16383 -1.43965
upperback -2.42384 -3.04299 0.283713
thorax -7.30711 -1.41863 1.55562
lowerneck -10.5453 7.54498 3.48063
upperneck -7.14869 9.85404 -15.6274
head 0.623142 5.07714 -4.84878
rclavicle -3.49861e-014 -3.04141e-014
rhumerus -60.5986 -10.4555 -47.3581
rradius 111.775
rwrist -5.34688
rhand -37.3669 84.3638
rfingers 7.12502
rthumb -10.4286 54.6424
lclavicle -3.49861e-014 -3.04141e-014
lhumerus -62.9317 0.993381 64.7527
lradius 120.557
lwrist -1.30126
lhand -38.3397 -79.6188
lfingers 7.12502
lthumb -11.3669 -49.9469
rfemur 8.05496 -6.60089 20.2434
rtibia 11.4419
rfoot -33.5957 -37.5749
rtoes 24.0657
lfemur -52.6597 68.5289 -4.76707
ltibia 91.2736
lfoot 6.99497 0.199237
ltoes 3.74818
183
root 22.3751 2.44415 0.00186319 176.489 78.996 91.523
lowerback 8.76768 -2.19963 -1.33214
upperback -2.41062 -3.0804 0.281243
thorax -7.37422 -1.44067 1.50425
lowerneck -11.1305 7.33915 2.98085
upperneck -7.20339 9.64617 -14.9824
head 0.611426 4.97146 -4.57269
rclavicle -1.66979e-014 -5.6107e-014
rhumerus -61.3296 -10.1577 -48.9856
rradius 111.316
rwrist -4.87798
rhand -37.5531 85.5995
rfingers 7.12502
rthumb -10.6082 55.8872
lclavicle -1.66979e-014 -5.6107e-014
lhumerus -63.5123 1.06734 65.3731
lradius 120.076
lwrist -2.55146
lhand -38.397 -80.3571
lfingers 7.12502
lthumb -11.4221 -50.6882
rfemur 7.96601 -6.80746 20.3437
rtibia 11.7299
rfoot -33.2176 -37.9647
rtoes 23.8392
lfemur -52.3732 68.7237 -4.36758
ltibia 91.3833
lfoot 6.92537 0.693773
ltoes 4.52422
184
root 22.3602 2.44616 0.0065022 176.204 79.1187 91.3734
lowerback 8.93124 -2.24555 -1.31752
upperback -2.39805 -3.145 0.234833
thorax -7.45639 -1.47234 1.4643
lowerneck -11.4467 7.14164 2.87835
upperneck -7.77355 9.36449 -14.7348
head 0.446844 4.86361 -4.5053
rclavicle -1.50281e-013 -2.28801e-013
rhumerus -61.9103 -9.79116 -50.6577
rradius 110.953
rwrist -4.80681
rhand -37.6264 86.7423
rfingers 7.12502
rthumb -10.6789 57.0337
lclavicle -1.50281e-013 -2.28801e-013
lhumerus -63.985 1.15224 65.6773
lradius 119.627
lwrist -4.0473
lhand -38.5664 -80.9961
lfingers 7.12502
lthumb -11.5856 -51.3364
rfemur 7.86379 -6.89864 20.3454
rtibia 12.0501
rfoot -32.8796 -38.2232
rtoes 25.5257
lfemur -51.9944 68.9004 -4.00887
ltibia 91.4537
lfoot 7.04682 1.2925
ltoes 8.99598
185
root 22.3517 2.44703 0.00788175 175.133 79.0649 90.4526
lowerback 9.11325 -2.31654 -1.4082
upperback -2.36999 -3.25708 0.162996
thorax -7.52708 -1.5229 1.46431
lowerneck -11.6212 6.91529 2.8722
upperneck -8.5563 9.01687 -14.6625
head 0.208312 4.73947 -4.51953
rclavicle -1.03368e-014 1.17283e-014
rhumerus -62.4181 -9.45187 -52.171
rradius 110.746
rwrist -5.05361
rhand -37.4234 87.6541
rfingers 7.12502
rthumb -10.4831 57.9355
lclavicle -1.03368e-014 1.17283e-014
lhumerus -64.2895 1.1907 65.8711
lradius 119.148
lwrist -5.37534
lhand -38.7009 -81.6791
lfingers 7.12502
lthumb -11.7152 -52.0267
rfemur 7.82534 -7.02807 20.1556
rtibia 12.4063
rfoot -34.1081 -38.0969
rtoes 21.9915
lfemur -51.6912 68.8835 -3.9639
ltibia 91.4723
lfoot 6.97077 1.56017
ltoes 9.96905
186
root 22.3453 2.44632 0.00934529 173.398 79.0303 88.7648
lowerback 9.15014 -2.29579 -1.71657
upperback -2.40307 -3.27104 0.101498
thorax -7.57011 -1.51561 1.57696
lowerneck -11.779 6.64446 2.67689
upperneck -9.00881 8.65614 -14.4412
head 0.045802 4.59082 -4.45111
rclavicle -2.22639e-014 1.12313e-014
rhumerus -63.0108 -9.11429 -53.3918
rradius 110.609
rwrist -5.4113
rhand -37.0298 87.6892
rfingers 7.12502
rthumb -10.1034 57.9518
lclavicle -2.22639e-014 1.12313e-014
lhumerus -64.4561 1.03547 66.1342
lradius 118.702
lwrist -6.48458
lhand -38.4041 -81.5625
lfingers 7.12502
lthumb -11.429 -51.894
rfemur 7.75654 -7.14396 19.8102
rtibia 12.661
rfoot -33.544 -37.9368
rtoes 26.0413
lfemur -51.6274 68.9248 -4.32109
ltibia 91.4599
lfoot 6.70009 1.46331
ltoes 7.4558
187
root 22.3329 2.44816 0.0102216 172.014 79.0102 87.4916
lowerback 9.21012 -2.33645 -1.96515
upperback -2.43869 -3.36107 0.0377386
thorax -7.62971 -1.54772 1.66655
lowerneck -13.0864 6.38833 1.90213
upperneck -7.65686 8.57193 -12.7477
head 0.509223 4.44374 -4.11608
rclavicle 1.47101e-014 -7.50412e-014
rhumerus -63.5195 -8.61475 -54.6793
rradius 110.452
rwrist -5.61115
rhand -36.5709 87.5278
rfingers 7.12502
rthumb -9.66067 57.7693
lclavicle 1.47101e-014 -7.50412e-014
lhumerus -64.6178 0.854176 66.1432
lradius 118.341
lwrist -7.36832
lhand -37.8858 -81.0756
lfingers 7.12502
lthumb -10.9291 -51.3801
rfemur 7.86609 -7.2441 19.5426
rtibia 12.6956
rfoot -34.0927 -37.4687
rtoes 26.4212
lfemur -51.3266 68.9413 -4.34037
ltibia 91.468
lfoot 6.40391 1.42229
ltoes 7.16871
188
root 22.3212 2.4516 0.0107205 171.76 79.0401 87.3502
lowerback 9.32873 -2.43182 -1.99186
upperback -2.49571 -3.49667 0.0272817
thorax -7.75323 -1.61 1.69918
lowerneck -12.9981 6.27495 1.96476
upperneck -8.79461 8.35165 -12.8776
head 0.1094 4.40855 -4.21762
rclavicle 3.97569e-016 3.11595e-014
rhumerus -63.8839 -8.0444 -56.0676
rradius 110.454
rwrist -5.56098
rhand -36.1628 87.7367
rfingers 7.12502
rthumb -9.26694 57.9604
lclavicle 3.97569e-016 3.11595e-014
lhumerus -64.7449 0.676461 65.9341
lradius 118.02
lwrist -8.11647
lhand -37.8038 -81.0376
lfingers 7.12502
lthumb -10.85 -51.3379
rfemur 7.97027 -7.33133 19.5224
rtibia 12.6855
rfoot -34.2295 -37.598
rtoes 27.0675
lfemur -51.0562 68.9399 -4.09493
ltibia 91.5159
lfoot 6.00238 1.41684
ltoes 6.99201
189
root 22.3104 2.45382 0.00719781 172.288 79.0368 88.0478
lowerback 9.47292 -2.52335 -1.85868
upperback -2.50395 -3.60393 0.0630453
thorax -7.84679 -1.66591 1.68713
lowerneck -12.8694 6.17234 2.2765
upperneck -9.79696 8.11952 -13.0159
head -0.241825 4.35046 -4.37196
rclavicle -2.34566e-014 6.0033e-014
rhumerus -64.1509 -7.46336 -57.3814
rradius 110.535
rwrist -5.1575
rhand -36.0952 87.9357
rfingers 7.12502
rthumb -9.20171 58.1565
lclavicle -2.34566e-014 6.0033e-014
lhumerus -64.5675 0.452386 65.755
lradius 117.591
lwrist -8.79765
lhand -37.9673 -81.0803
lfingers 7.12502
lthumb -11.0077 -51.3889
rfemur 8.11034 -7.5449 19.6315
rtibia 12.7154
rfoot -34.9079 -37.1799
rtoes 22.9763
lfemur -50.8481 68.8888 -3.69149
ltibia 91.6319
lfoot 5.44789 1.31911
ltoes 5.66445
190
root 22.2933 2.45307 0.0067722 173.404 79.2419 89.1808
lowerback 9.40201 -2.54254 -1.66761
upperback -2.52746 -3.6021 0.116092
thorax -7.83921 -1.67357 1.63304
lowerneck -13.0104 5.9611 2.4381
upperneck -10.4523 7.79654 -12.7378
head -0.470399 4.21861 -4.33792
rclavicle -8.82604e-014 -7.73769e-014
rhumerus -64.3514 -6.81943 -58.6551
rradius 110.449
rwrist -4.20212
rhand -36.657 88.5321
rfingers 7.12502
rthumb -9.74377 58.7775
lclavicle -8.82604e-014 -7.73769e-014
lhumerus -64.1215 0.154645 65.555
lradius 117.056
lwrist -9.29385
lhand -37.9675 -80.7014
lfingers 7.12502
lthumb -11.0079 -51.01
rfemur 8.08009 -7.54616 19.9054
rtibia 12.747
rfoot -33.4655 -37.4564
rtoes 27.9312
lfemur -50.9039 69.183 -3.2946
ltibia 91.8062
lfoot 5.18659 1.14075
ltoes 6.00314
191
root 22.281 2.45176 0.00850157 173.86 79.4108 89.5425
lowerback 9.2468 -2.53489 -1.54548
upperback -2.60122 -3.5762 0.11698
thorax -7.83704 -1.66722 1.55591
lowerneck -13.4333 5.69478 2.25467
upperneck -10.821 7.47284 -12.3697
head -0.575432 4.07616 -4.18957
rclavicle 4.37326e-014 -1.67476e-014
rhumerus -64.441 -6.33402 -59.7059
rradius 110.773
rwrist -4.06249
rhand -36.4855 88.5296
rfingers 7.12502
rthumb -9.57825 58.7673
lclavicle 4.37326e-014 -1.67476e-014
lhumerus -63.6159 -0.366792 65.4397
lradius 116.522
lwrist -9.52002
lhand -38.1005 -80.5546
lfingers 7.12502
lthumb -11.1362 -50.8701
rfemur 7.99331 -7.40926 20.0519
rtibia 12.6994
rfoot -33.6222 -37.5967
rtoes 26.7146
lfemur -51.1438 69.4539 -3.30873
ltibia 91.913
lfoot 5.19241 0.949377
ltoes 7.41326
192
root 22.2767 2.45114 0.0107779 173.645 79.5178 89.1774
lowerback 9.04923 -2.49774 -1.58926
upperback -2.70286 -3.53165 0.103285
thorax -7.83183 -1.64395 1.55192
lowerneck -13.7782 5.43757 1.96427
upperneck -11.2068 7.18041 -11.8996
head -0.704116 3.9562 -3.98684
rclavicle 9.93923e-015 1.42131e-014
rhumerus -64.3089 -5.9352 -60.7175
rradius 111.008
rwrist -4.02568
rhand -36.4634 88.1153
rfingers 7.12502
rthumb -9.55693 58.352
lclavicle 9.93923e-015 1.42131e-014
lhumerus -63.1912 -1.14749 65.4474
lradius 116.095
lwrist -9.1155
lhand -38.2318 -81.3532
lfingers 7.12502
lthumb -11.2628 -51.6756
rfemur 7.8306 -7.25494 20.0498
rtibia 12.696
rfoot -33.3294 -37.759
rtoes 26.7216
lfemur -51.5511 69.6215 -3.6932
ltibia 91.9737
lfoot 5.21665 0.80917
ltoes 7.73304
